name D:\school\WTK\thesis\model\3dpredictsim\Results\Batchsim_tmt_linear_v2\Pog_s1_tmt_aCst_d02_k1000_ig24.mot
datacolumns 128
datarows 4
range 0.00000000 0.03159479
endheader
time	pelvis_tilt	pelvis_list	pelvis_rotation	pelvis_tx	pelvis_ty	pelvis_tz	hip_flexion_l	hip_adduction_l	hip_rotation_l	hip_flexion_r	hip_adduction_r	hip_rotation_r	knee_angle_l	knee_angle_r	ankle_angle_l	ankle_angle_r	subtalar_angle_l	subtalar_angle_r	tmt_angle_l	tmt_angle_r	mtp_angle_l	mtp_angle_r	lumbar_extension	lumbar_bending	lumbar_rotation	arm_flex_l	arm_add_l	arm_rot_l	arm_flex_r	arm_add_r	arm_rot_r	elbow_flex_l	elbow_flex_r	pro_sup_l	pro_sup_r	glut_med1_l/activation	glut_med2_l/activation	glut_med3_l/activation	glut_min1_l/activation	glut_min2_l/activation	glut_min3_l/activation	semimem_l/activation	semiten_l/activation	bifemlh_l/activation	bifemsh_l/activation	sar_l/activation	add_long_l/activation	add_brev_l/activation	add_mag1_l/activation	add_mag2_l/activation	add_mag3_l/activation	tfl_l/activation	pect_l/activation	grac_l/activation	glut_max1_l/activation	glut_max2_l/activation	glut_max3_l/activation	iliacus_l/activation	psoas_l/activation	quad_fem_l/activation	gem_l/activation	peri_l/activation	rect_fem_l/activation	vas_med_l/activation	vas_int_l/activation	vas_lat_l/activation	med_gas_l/activation	lat_gas_l/activation	soleus_l/activation	tib_post_l/activation	flex_dig_l/activation	flex_hal_l/activation	tib_ant_l/activation	per_brev_l/activation	per_long_l/activation	per_tert_l/activation	ext_dig_l/activation	ext_hal_l/activation	ercspn_l/activation	intobl_l/activation	extobl_l/activation	glut_med1_r/activation	glut_med2_r/activation	glut_med3_r/activation	glut_min1_r/activation	glut_min2_r/activation	glut_min3_r/activation	semimem_r/activation	semiten_r/activation	bifemlh_r/activation	bifemsh_r/activation	sar_r/activation	add_long_r/activation	add_brev_r/activation	add_mag1_r/activation	add_mag2_r/activation	add_mag3_r/activation	tfl_r/activation	pect_r/activation	grac_r/activation	glut_max1_r/activation	glut_max2_r/activation	glut_max3_r/activation	iliacus_r/activation	psoas_r/activation	quad_fem_r/activation	gem_r/activation	peri_r/activation	rect_fem_r/activation	vas_med_r/activation	vas_int_r/activation	vas_lat_r/activation	med_gas_r/activation	lat_gas_r/activation	soleus_r/activation	tib_post_r/activation	flex_dig_r/activation	flex_hal_r/activation	tib_ant_r/activation	per_brev_r/activation	per_long_r/activation	per_tert_r/activation	ext_dig_r/activation	ext_hal_r/activation	ercspn_r/activation	intobl_r/activation	extobl_r/activation	
          0.00000000	         -2.69971758	          0.96014205	          4.52433384	          0.00000000	          0.87229635	         -0.00157219	        -17.85129586	          1.39153784	          5.48828422	         26.45172602	         -0.31510394	         -2.39824619	         -5.41698553	         -8.03862963	         -7.90097237	          5.91884353	          7.60771244	          4.12110558	          1.07184422	          0.03608817	         26.12758294	         -0.10401334	          0.52002152	         -3.14190854	         -1.58984340	          3.97529327	        -13.47792623	         12.63938435	         -8.09783373	        -13.44974024	         15.18873242	         22.82211432	         15.70915114	         86.51662706	         86.51662706	          0.29458598	          0.09394590	          0.08122078	          0.26761261	          0.15509646	          0.09500168	          0.05000087	          0.05000010	          0.05000009	          0.05000013	          0.09547650	          0.06527132	          0.05000020	          0.05000027	          0.05000097	          0.05000046	          0.22315014	          0.05000392	          0.05000049	          0.05000556	          0.05000234	          0.05000150	          0.33451528	          0.62030479	          0.05326769	          0.05000144	          0.06909327	          0.25815164	          0.10133615	          0.08245741	          0.05004864	          0.18547656	          0.26430058	          0.21525694	          0.20885677	          0.18913796	          0.26008264	          0.05000001	          0.08964345	          0.14098229	          0.05000012	          0.05000003	          0.05000010	          0.05000000	          0.05000001	          0.05000003	          0.13000920	          0.05000059	          0.10061971	          0.05000016	          0.05000022	          0.05000171	          0.05877633	          0.05877640	          0.05877635	          0.05000020	          0.05000083	          0.05468787	          0.05877662	          0.18666191	          0.14557479	          0.13230009	          0.05000109	          0.05001369	          0.05877608	          0.06909253	          0.10765100	          0.13392697	          0.05000014	          0.05000013	          0.13209644	          0.05000068	          0.06292383	          0.05000062	          0.09389568	          0.10983528	          0.07527821	          0.05877631	          0.05877627	          0.05877632	          0.05000005	          0.05000084	          0.05558229	          0.48064460	          0.27763237	          0.16598047	          0.28203065	          0.50186969	          0.29907711	          0.05152489	          0.14373955	          0.14443544	
          0.01053160	         -2.68559594	          1.01350895	          4.68540063	          0.01629981	          0.87101608	         -0.00145158	        -17.70034078	          1.26503358	          5.24820820	         25.94149188	         -0.19072162	         -2.17006297	         -7.44743436	         -8.08694901	         -8.53231379	          5.32389941	          8.58237593	          3.68979761	          0.99284213	          0.05108368	         26.96551871	         -0.08532957	          0.71825286	         -2.96922054	         -1.63616616	          3.79740193	        -13.50696239	         12.94581287	         -9.18845897	        -13.45047250	         15.08196944	         23.58116750	         15.71416646	         86.51662706	         86.51662706	          0.25059921	          0.07991815	          0.06909312	          0.22765347	          0.13193788	          0.08081630	          0.05000101	          0.05000009	          0.05000009	          0.05000016	          0.08122045	          0.13972751	          0.10982890	          0.05338844	          0.05000162	          0.05000030	          0.18982997	          0.10790564	          0.05133813	          0.05000068	          0.05000043	          0.05000046	          0.28456634	          0.52768264	          0.05858404	          0.05877666	          0.05877650	          0.21960511	          0.13047345	          0.15509344	          0.15508996	          0.15778168	          0.22483592	          0.19025361	          0.17767102	          0.16089675	          0.22124799	          0.05000001	          0.07625821	          0.13798587	          0.05000007	          0.05000001	          0.05000008	          0.05000018	          0.06909314	          0.05000007	          0.11059659	          0.05877378	          0.10212810	          0.05877640	          0.05617124	          0.05000107	          0.05000002	          0.05000010	          0.05000004	          0.05000008	          0.05010897	          0.05000020	          0.05000036	          0.15879083	          0.19407849	          0.14427108	          0.05000012	          0.05000068	          0.05000017	          0.05877632	          0.13391259	          0.17299908	          0.05000023	          0.05000023	          0.21434472	          0.11224105	          0.16640290	          0.06909372	          0.23916429	          0.26130822	          0.19578692	          0.05000000	          0.05000000	          0.05000000	          0.05000003	          0.05000108	          0.05000011	          0.54780140	          0.29282233	          0.17933589	          0.47451635	          0.54549838	          0.27975417	          0.05000002	          0.12227674	          0.12286871	
          0.02106319	         -2.66513307	          1.05329851	          4.82496204	          0.03285881	          0.86965916	         -0.00133978	        -17.45548321	          1.12816893	          5.00023262	         25.33245537	         -0.09204716	         -1.90584972	         -9.65741539	         -8.71814031	         -9.17581595	          4.64038879	          9.54762528	          3.23902311	          0.88210745	         -0.03765238	         27.45292934	         -0.13140822	          0.93474311	         -2.76861327	         -1.67338399	          3.55552246	        -13.54106271	         13.22194653	        -10.29417830	        -13.45867531	         15.00830693	         24.33572433	         15.73041684	         86.51662706	         86.51662706	          0.26865448	          0.06798499	          0.05877632	          0.19366096	          0.11223728	          0.06874904	          0.05000165	          0.05000031	          0.05000040	          0.05000006	          0.06909293	          0.15826769	          0.21594695	          0.05877910	          0.05874802	          0.08448836	          0.16148509	          0.09179377	          0.05000088	          0.05004843	          0.05723453	          0.05877548	          0.24207564	          0.46775861	          0.05850159	          0.05000073	          0.05000017	          0.18681424	          0.12389325	          0.13193579	          0.13193307	          0.13422212	          0.19126400	          0.16184543	          0.15114167	          0.13687216	          0.18821188	          0.05000002	          0.09508777	          0.14648128	          0.05000007	          0.05000026	          0.05000014	          0.05000000	          0.05877635	          0.06899012	          0.27730734	          0.05000011	          0.27988313	          0.05000031	          0.05000017	          0.26916973	          0.07156221	          0.05000012	          0.06141097	          0.05000003	          0.05000011	          0.06909303	          0.09547537	          0.13508122	          0.16509960	          0.14598902	          0.05000181	          0.05879446	          0.05000503	          0.05000019	          0.11391755	          0.14716743	          0.05000063	          0.05000029	          0.18233935	          0.09548156	          0.18308771	          0.05877683	          0.20345292	          0.22229038	          0.16655254	          0.05877650	          0.05877658	          0.05877634	          0.05877628	          0.05877635	          0.05877640	          0.46600511	          0.27542703	          0.15255805	          0.40366282	          0.53700954	          0.23798202	          0.05000000	          0.10401869	          0.10452227	
          0.03159479	         -2.64112385	          1.07806975	          4.94002257	          0.04949059	          0.86820651	         -0.00122180	        -17.11521119	          0.98437328	          4.74650176	         24.61558286	          0.00354238	         -1.63025263	        -12.03092904	         -9.41456020	         -9.74441247	          4.14012710	         10.46847479	          2.76998773	          0.72553941	         -0.01445664	         27.40144303	         -0.14926852	          1.15223439	         -2.54228238	         -1.70230739	          3.27925192	        -13.58142596	         13.47470681	        -11.37444835	        -13.47498802	         14.99529902	         25.07564441	         15.73482066	         86.51662706	         86.51662706	          0.22853977	          0.05783366	          0.05000001	          0.17836559	          0.09547833	          0.05848363	          0.06823447	          0.05000008	          0.05000006	          0.05000009	          0.05877653	          0.18591240	          0.23919044	          0.05000270	          0.05000089	          0.07187305	          0.13737260	          0.07809831	          0.05000020	          0.05000029	          0.05000020	          0.05000022	          0.20592955	          0.42459641	          0.05000002	          0.05000009	          0.05000004	          0.15891962	          0.10539410	          0.11223566	          0.11223364	          0.11418042	          0.16270496	          0.13767909	          0.12857363	          0.11643485	          0.16010865	          0.05352686	          0.09997308	          0.12460912	          0.09305481	          0.15827594	          0.05000660	          0.07719687	          0.05000002	          0.05868870	          0.29702623	          0.26093781	          0.35327761	          0.15472954	          0.16900181	          0.22897832	          0.06351725	          0.09001197	          0.06972001	          0.08122050	          0.05877586	          0.05877627	          0.08121925	          0.11491134	          0.17468043	          0.17149541	          0.05000012	          0.05001560	          0.08121746	          0.20842778	          0.17890937	          0.17877621	          0.05000009	          0.05000010	          0.15511295	          0.08122466	          0.15574987	          0.05000043	          0.17307387	          0.18909858	          0.14168336	          0.05000015	          0.05000022	          0.05000001	          0.05000000	          0.05000010	          0.05000010	          0.59348427	          0.29617478	          0.15448174	          0.64964749	          0.61773519	          0.38865730	          0.05000005	          0.08848689	          0.08891528	
